HIERARCHY
ROOT Hips
{
	OFFSET	0.00	0.00	0.00
	CHANNELS 6 Xposition Yposition Zposition Zrotation Xrotation Yrotation
	JOINT LeftUpLeg
	{
		OFFSET	 0.126116	-0.014019	-0.065224
		CHANNELS 3 Zrotation Xrotation Yrotation
		JOINT LeftLeg
		{
			OFFSET	 0.000000	 0.000000	 0.569914
			CHANNELS 3 Zrotation Xrotation Yrotation
			JOINT LeftFoot
			{
				OFFSET	 0.000000	 0.000000	 0.544423
				CHANNELS 3 Zrotation Xrotation Yrotation
				JOINT LeftToeBase
				{
					OFFSET	 0.000000	 0.000000	 0.207117
					CHANNELS 3 Zrotation Xrotation Yrotation
					End Site
					{
						OFFSET	 0.000000	 0.000000	 0.207117
					}
				}
			}
		}
	}
	JOINT RightUpLeg
	{
		OFFSET	-0.124023	-0.008373	-0.065224
		CHANNELS 3 Zrotation Xrotation Yrotation
		JOINT RightLeg
		{
			OFFSET	 0.000000	 0.000000	 0.570047
			CHANNELS 3 Zrotation Xrotation Yrotation
			JOINT RightFoot
			{
				OFFSET	 0.000000	 0.000000	 0.544354
				CHANNELS 3 Zrotation Xrotation Yrotation
				JOINT RightToeBase
				{
					OFFSET	 0.000000	 0.000000	 0.207540
					CHANNELS 3 Zrotation Xrotation Yrotation
					End Site
					{
						OFFSET	 0.000000	 0.000000	 0.207540
					}
				}
			}
		}
	}
	JOINT Spine
	{
		OFFSET	 0.000184	-0.007763	 0.117403
		CHANNELS 3 Zrotation Xrotation Yrotation
		JOINT Spine1
		{
			OFFSET	 0.000000	 0.000000	 0.137269
			CHANNELS 3 Zrotation Xrotation Yrotation
			JOINT Spine2
			{
				OFFSET	 0.000000	 0.000000	 0.156879
				CHANNELS 3 Zrotation Xrotation Yrotation
				JOINT LeftShoulder
				{
					OFFSET	 0.080501	-0.002496	 0.160144
					CHANNELS 3 Zrotation Xrotation Yrotation
					JOINT LeftArm
					{
						OFFSET	 0.000000	 0.000000	 0.164363
						CHANNELS 3 Zrotation Xrotation Yrotation
						JOINT LeftForeArm
						{
							OFFSET	 0.000000	 0.000000	 0.364576
							CHANNELS 3 Zrotation Xrotation Yrotation
							JOINT LeftHand
							{
								OFFSET	 0.000000	 0.000000	 0.360812
								CHANNELS 3 Zrotation Xrotation Yrotation
								JOINT LeftHandIndex1
								{
									OFFSET	 0.000000	 0.000000	 0.086006
									CHANNELS 3 Zrotation Xrotation Yrotation
									JOINT LeftHandIndex2
									{
										OFFSET	 0.000000	 0.000000	 0.047236
										CHANNELS 3 Zrotation Xrotation Yrotation
										JOINT LeftHandIndex3
										{
											OFFSET	-0.004284	-0.000551	 0.038166
											CHANNELS 3 Zrotation Xrotation Yrotation
											End Site
											{
												OFFSET	-0.004284	-0.000551	 0.038166
											}
										}
									}
								}
							}
						}
					}
				}
				JOINT Neck
				{
					OFFSET	 0.000000	 0.000000	 0.176489
					CHANNELS 3 Zrotation Xrotation Yrotation
					JOINT Head
					{
						OFFSET	 0.000000	-0.001747	 0.077940
						CHANNELS 3 Zrotation Xrotation Yrotation
						End Site
						{
							OFFSET	 0.000000	-0.001747	 0.077940
						}
					}
				}
				JOINT RightShoulder
				{
					OFFSET	-0.080363	 0.000306	 0.159706
					CHANNELS 3 Zrotation Xrotation Yrotation
					JOINT RightArm
					{
						OFFSET	 0.000000	 0.000000	 0.164196
						CHANNELS 3 Zrotation Xrotation Yrotation
						JOINT RightForeArm
						{
							OFFSET	 0.000000	 0.000000	 0.365611
							CHANNELS 3 Zrotation Xrotation Yrotation
							JOINT RightHand
							{
								OFFSET	 0.000000	 0.000000	 0.360648
								CHANNELS 3 Zrotation Xrotation Yrotation
								JOINT RightHandIndex1
								{
									OFFSET	 0.000000	 0.000000	 0.069977
									CHANNELS 3 Zrotation Xrotation Yrotation
									JOINT RightHandIndex2
									{
										OFFSET	 0.000000	 0.000000	 0.052305
										CHANNELS 3 Zrotation Xrotation Yrotation
										JOINT RightHandIndex3
										{
											OFFSET	 0.009002	-0.000782	 0.042196
											CHANNELS 3 Zrotation Xrotation Yrotation
											End Site
											{
												OFFSET	 0.009002	-0.000782	 0.042196
											}
										}
									}
								}
							}
						}
					}
				}
			}
		}
	}
}
MOTION
Frames:    6
Frame Time: 0.03333334
 0.000302	 0.019606	 1.272984	-0.002726	 0.004161	 0.174483	 1.067169	-1.735791	 177.433100	 1.475705	-11.759770	-0.686200	-7.583338	 70.626880	 1.516324	-2.385833	 28.452760	 0.000004	-1.233732	-1.792099	-177.728400	-1.466640	-11.390220	 0.651840	 7.222683	 70.295300	-1.328549	 2.384658	 28.388730	 0.000004	-10.808710	 2.620357	 0.286035	-2.149707	 4.019994	-0.781652	 6.506397	-4.955441	 1.430610	-91.776180	 78.527450	 180.000000	 49.947730	 37.305420	-61.933190	-11.497920	 0.331861	-2.556545	-34.982410	-23.523290	-6.236084	-2.635965	 4.993658	 6.788941	-5.165319	 0.784187	 3.516649	-5.225038	 0.466231	 0.424329	-0.000002	-3.783157	-0.089647	 6.315611	 4.421037	-0.244042	 89.782140	 78.203900	 180.000000	-63.505420	 41.718450	 58.211080	 10.933210	 3.870162	 9.544522	 36.278930	-23.962080	 11.228440	 6.112037	 4.509576	-0.364401	 4.968462	 1.518543	-9.347576	 5.168945	 0.703820	 2.021906
 0.000307	 0.019499	 1.274886	-0.002107	 0.005220	 0.173559	 1.472786	-1.747050	 177.404500	 1.475996	-11.735600	-0.684749	-7.541693	 70.294820	 1.483146	-2.385833	 28.452760	 0.000004	-1.639288	-1.802988	-177.700200	-1.466870	-11.370290	 0.650669	 7.183208	 69.966740	-1.295512	 2.384658	 28.388730	 0.000004	-16.720110	 2.505748	 0.266120	-2.106974	 4.416763	-0.736792	 6.374153	-5.474947	 1.434733	-91.776200	 78.527500	 180.000000	 50.018360	 37.260570	-61.667120	-14.603200	 0.694713	-4.508000	-39.402840	-29.486330	-8.770721	-2.635965	 4.993658	 6.788941	-5.165319	 0.784187	 3.516649	-5.225038	 0.466231	 0.424329	-0.000002	-3.783157	-0.089647	 6.166249	 4.196860	-0.226168	 89.782200	 78.203900	 179.999900	-62.440750	 40.977330	 59.470050	 13.308160	 5.087496	 12.351920	 41.260830	-29.986630	 13.880850	 6.112037	 4.509576	-0.364401	 4.968462	 1.518543	-9.347576	 5.168945	 0.703820	 2.021906
 0.000302	 0.019395	 1.276879	-0.001394	 0.006329	 0.169277	 1.902340	-1.754532	 177.377100	 1.476426	-11.700640	-0.682651	-7.495853	 69.939040	 1.446676	-2.385833	 28.452760	 0.000004	-2.067848	-1.817504	-177.667800	-1.467052	-11.354840	 0.649762	 7.143068	 69.622440	-1.262157	 2.384658	 28.388730	 0.000004	-22.369450	 2.387751	 0.243983	-2.028900	 4.825292	-0.679467	 6.134459	-6.016594	 1.413590	-91.776300	 78.527470	-179.999900	 50.068390	 37.190070	-61.340180	-17.723620	 1.279473	-6.449003	-44.226650	-34.410750	-12.122360	-2.635965	 4.993658	 6.788941	-5.165319	 0.784187	 3.516649	-5.225038	 0.466231	 0.424329	-0.000002	-3.783157	-0.089647	 5.912816	 3.976695	-0.205471	 89.782100	 78.203890	 180.000000	-60.218360	 39.629130	 59.393390	 14.996590	 8.489855	 18.353710	 46.698410	-35.139510	 17.372310	 6.112037	 4.509576	-0.364401	 4.968462	 1.518543	-9.347576	 5.168945	 0.703820	 2.021906
 0.000288	 0.019303	 1.278859	-0.000686	 0.007337	 0.161487	 2.339812	-1.758511	 177.352400	 1.476943	-11.657730	-0.680076	-7.433603	 69.583400	 1.406052	-2.385833	 28.452760	 0.000004	-2.480328	-1.835574	-177.633700	-1.467134	-11.347680	 0.649340	 7.119058	 69.286090	-1.234305	 2.384658	 28.388730	 0.000004	-27.236200	 2.276031	 0.222085	-1.918589	 5.212329	-0.614466	 5.797549	-6.536190	 1.365101	-91.776180	 78.527470	 180.000000	 50.096940	 37.096650	-60.981270	-20.637070	 2.028002	-8.231884	-48.867150	-37.602200	-15.637980	-2.635965	 4.993658	 6.788941	-5.165319	 0.784187	 3.516649	-5.225038	 0.466231	 0.424329	-0.000002	-3.783157	-0.089647	 5.568329	 3.778152	-0.183814	 89.782100	 78.203900	 180.000000	-57.964900	 38.332310	 62.216830	 16.586320	 10.158380	 20.807860	 51.773390	-38.672630	 21.011180	 6.112037	 4.509576	-0.364401	 4.968462	 1.518543	-9.347576	 5.168945	 0.703820	 2.021906
 0.000267	 0.019221	 1.280551	-0.000079	 0.008098	 0.151469	 2.717130	-1.758114	 177.334000	 1.477483	-11.613170	-0.677406	-7.392824	 69.263890	 1.372953	-2.385833	 28.452760	 0.000004	-2.857555	-1.856112	-177.600200	-1.467121	-11.348940	 0.649415	 7.085637	 68.991390	-1.208299	 2.384658	 28.388730	 0.000004	-30.869460	 2.182299	 0.203406	-1.793181	 5.537566	-0.551041	 5.416113	-6.977716	 1.297851	-91.776190	 78.527450	-180.000000	 50.104580	 36.998390	-60.639140	-23.069800	 2.805082	-9.690079	-52.517960	-38.941520	-18.417680	-2.635965	 4.993658	 6.788941	-5.165319	 0.784187	 3.516649	-5.225038	 0.466231	 0.424329	-0.000002	-3.783157	-0.089647	 5.186321	 3.618832	-0.163964	 89.782150	 78.203870	 179.999900	-55.810910	 37.074230	 65.633790	 17.704530	 11.025520	 21.887720	 55.332780	-40.516030	 23.742080	 6.112037	 4.509576	-0.364401	 4.968462	 1.518543	-9.347576	 5.168945	 0.703820	 2.021906
 0.000235	 0.019120	 1.282395	 0.000534	 0.008769	 0.135930	 3.163206	-1.754068	 177.315700	 1.478195	-11.553900	-0.673852	-7.344152	 68.883260	 1.333533	-2.385833	 28.452760	 0.000004	-3.302703	-1.885729	-177.557700	-1.466981	-11.360800	 0.650111	 7.048244	 68.648760	-1.179995	 2.384658	 28.388730	 0.000004	-34.221310	 2.080181	 0.183036	-1.612734	 5.892765	-0.470915	 4.869592	-7.465037	 1.188449	-91.776190	 78.527430	 180.000000	 50.093420	 36.868110	-60.213750	-25.830790	 3.823728	-11.253750	-55.709920	-38.751410	-20.661030	-2.635965	 4.993658	 6.788941	-5.165319	 0.784187	 3.516649	-5.225038	 0.466231	 0.424329	-0.000002	-3.783157	-0.089647	 4.647868	 3.452739	-0.140176	 89.782160	 78.203900	 179.999900	-52.766590	 35.335880	 68.879290	 18.042270	 12.680230	 24.195180	 57.692030	-41.333080	 25.564940	 6.112037	 4.509576	-0.364401	 4.968462	 1.518543	-9.347576	 5.168945	 0.703820	 2.021906
